<svg xmlns="http://www.w3.org/2000/svg" width="36.404" height="36.404" viewBox="0 0 36.404 36.404">
  <g id="Groupe_3" data-name="Groupe 3" transform="translate(-805 160)">
    <rect id="Rectangle_12" data-name="Rectangle 12" width="18.929" height="18.929" transform="translate(813.834 -151.166)" fill="#34a853"/>
    <g id="Union_6" data-name="Union 6" transform="translate(805 -160)" fill="#4285f4">
      <path d="M 28.8394775390625 35.35988235473633 L 26.87151336669922 31.75218391418457 L 26.72938346862793 31.49162483215332 L 26.43257331848145 31.49162483215332 L 10.40091228485107 31.49162483215332 L 9.900912284851074 31.49162483215332 L 9.900912284851074 31.99162483215332 L 9.900912284851074 33.67083358764648 L 1.044174551963806 28.83955001831055 L 4.651842594146729 26.87189483642578 L 4.912432670593262 26.72976493835449 L 4.912432670593262 26.43293380737305 L 4.912432670593262 10.40176486968994 L 4.912432670593262 9.901764869689941 L 4.412432670593262 9.901764869689941 L 2.733186960220337 9.901764869689941 L 7.564500331878662 1.044235944747925 L 9.531962394714355 4.651834487915039 L 9.67408275604248 4.912434577941895 L 9.970922470092773 4.912434577941895 L 26.00228309631348 4.912434577941895 L 26.50228309631348 4.912434577941895 L 26.50228309631348 4.412434577941895 L 26.50228309631348 2.733977556228638 L 35.35980987548828 7.564567089080811 L 31.75219345092773 9.532334327697754 L 31.49161338806152 9.674464225769043 L 31.49161338806152 9.971284866333008 L 31.49161338806152 26.00313377380371 L 31.49161338806152 26.50313377380371 L 31.99161338806152 26.50313377380371 L 33.6700325012207 26.50313377380371 L 28.8394775390625 35.35988235473633 Z M 10.21663284301758 10.21663475036621 L 10.21663284301758 10.71663475036621 L 10.21663284301758 25.68826484680176 L 10.21663284301758 26.18826484680176 L 10.71663284301758 26.18826484680176 L 25.68741226196289 26.18826484680176 L 26.18741226196289 26.18826484680176 L 26.18741226196289 25.68826484680176 L 26.18741226196289 10.71663475036621 L 26.18741226196289 10.21663475036621 L 25.68741226196289 10.21663475036621 L 10.71663284301758 10.21663475036621 L 10.21663284301758 10.21663475036621 Z" stroke="none"/>
      <path d="M 28.83944892883301 34.31571578979492 L 32.82780075073242 27.00313377380371 L 30.99161338806152 27.00313377380371 L 30.99161338806152 9.377644538879395 L 34.31557083129883 7.564599514007568 L 27.00228309631348 3.576185464859009 L 27.00228309631348 5.412434577941895 L 9.377242088317871 5.412434577941895 L 7.564468860626221 2.088476657867432 L 3.575457096099854 9.401764869689941 L 5.412432670593262 9.401764869689941 L 5.412432670593262 27.0265941619873 L 2.088337421417236 28.83958053588867 L 9.400912284851074 32.82853698730469 L 9.400912284851074 30.99162483215332 L 27.02618217468262 30.99162483215332 L 28.83944892883301 34.31571578979492 M 9.716632843017578 9.716634750366211 L 26.68741226196289 9.716634750366211 L 26.68741226196289 26.68826484680176 L 9.716632843017578 26.68826484680176 L 9.716632843017578 9.716634750366211 M 28.83951187133789 36.404052734375 L 26.43257331848145 31.99162483215332 L 10.40091228485107 31.99162483215332 L 10.40091228485107 34.51313400268555 L 2.552490286689135e-06 28.83951377868652 L 4.412432670593262 26.43293380737305 L 4.412432670593262 10.40176486968994 L 1.890922546386719 10.40176486968994 L 7.56453275680542 4.45983869212796e-06 L 9.970922470092773 4.412434577941895 L 26.00228309631348 4.412434577941895 L 26.00228309631348 1.891774415969849 L 36.4040412902832 7.564534664154053 L 31.99161338806152 9.971284866333008 L 31.99161338806152 26.00313377380371 L 34.51227188110352 26.00313377380371 L 28.83951187133789 36.404052734375 Z M 10.71663284301758 10.71663475036621 L 10.71663284301758 25.68826484680176 L 25.68741226196289 25.68826484680176 L 25.68741226196289 10.71663475036621 L 10.71663284301758 10.71663475036621 Z" stroke="none" fill="#000"/>
    </g>
    <g id="Exclusion_1" data-name="Exclusion 1" transform="translate(815.096 -149.904)" fill="#fbbc04">
      <path d="M 8.202301979064941 15.90546226501465 C 3.955242156982422 15.90546226501465 0.5000020861625671 12.44984245300293 0.5000020861625671 8.202301979064941 C 0.5000020861625671 3.955242156982422 3.955242156982422 0.5000020861625671 8.202301979064941 0.5000020861625671 C 12.44984245300293 0.5000020861625671 15.90546226501465 3.955242156982422 15.90546226501465 8.202301979064941 C 15.90546226501465 12.44984245300293 12.44984245300293 15.90546226501465 8.202301979064941 15.90546226501465 Z M 8.202301979064941 6.25534200668335 C 7.128742218017578 6.25534200668335 6.25534200668335 7.128742218017578 6.25534200668335 8.202301979064941 C 6.25534200668335 9.276331901550293 7.128742218017578 10.15012168884277 8.202301979064941 10.15012168884277 C 9.276331901550293 10.15012168884277 10.15012168884277 9.276331901550293 10.15012168884277 8.202301979064941 C 10.15012168884277 7.128742218017578 9.276331901550293 6.25534200668335 8.202301979064941 6.25534200668335 Z" stroke="none"/>
      <path d="M 8.202301979064941 15.40546226501465 C 12.1741418838501 15.40546226501465 15.40546226501465 12.1741418838501 15.40546226501465 8.202301979064941 C 15.40546226501465 4.230942249298096 12.1741418838501 1.000002145767212 8.202301979064941 1.000002145767212 C 4.230942249298096 1.000002145767212 1.000002145767212 4.230942249298096 1.000002145767212 8.202301979064941 C 1.000002145767212 12.1741418838501 4.230942249298096 15.40546226501465 8.202301979064941 15.40546226501465 M 8.202301979064941 5.75534200668335 C 9.552032470703125 5.75534200668335 10.65012168884277 6.853042125701904 10.65012168884277 8.202301979064941 C 10.65012168884277 9.552032470703125 9.552032470703125 10.65012168884277 8.202301979064941 10.65012168884277 C 6.853042125701904 10.65012168884277 5.75534200668335 9.552032470703125 5.75534200668335 8.202301979064941 C 5.75534200668335 6.853042125701904 6.853042125701904 5.75534200668335 8.202301979064941 5.75534200668335 M 8.202301979064941 16.40546226501465 C 3.679532051086426 16.40546226501465 2.086181666527409e-06 12.72554206848145 2.086181666527409e-06 8.202301979064941 C 2.086181666527409e-06 3.679532051086426 3.679532051086426 2.086181666527409e-06 8.202301979064941 2.086181666527409e-06 C 12.72554206848145 2.086181666527409e-06 16.40546226501465 3.679532051086426 16.40546226501465 8.202301979064941 C 16.40546226501465 12.72554206848145 12.72554206848145 16.40546226501465 8.202301979064941 16.40546226501465 Z M 8.202301979064941 6.75534200668335 C 7.404442310333252 6.75534200668335 6.75534200668335 7.404442310333252 6.75534200668335 8.202301979064941 C 6.75534200668335 9.000632286071777 7.404442310333252 9.650121688842773 8.202301979064941 9.650121688842773 C 9.000632286071777 9.650121688842773 9.650121688842773 9.000632286071777 9.650121688842773 8.202301979064941 C 9.650121688842773 7.404442310333252 9.000632286071777 6.75534200668335 8.202301979064941 6.75534200668335 Z" stroke="none" fill="#000"/>
    </g>
  </g>
</svg>
